<svg xmlns="http://www.w3.org/2000/svg" xmlns:xlink="http://www.w3.org/1999/xlink" width="50" height="50" x="0" y="0" version="1.1" viewBox="5 0 50 50"><defs><linearGradient id="Gradient_1" x1="-660.5" x2="-662" y1="157.987" y2="152.362" gradientTransform="matrix(1, 0, 0, 1, 701, -132.362)" gradientUnits="userSpaceOnUse"><stop offset="0" stop-color="#444"/><stop offset="1" stop-color="#B5B5B5"/></linearGradient></defs><g><path fill="#B5B5B5" d="M34,14 L25,36 L36,36 L37.156,28.375 C35.72,27.032 34,25.193 34,24 L34,22 L37.906,23.5 L39.344,14 L34,14 z"/><path fill="url(#Gradient_1)" d="M42,36 L42,32 C42,27.548 34,26.172 34,22 C34,19 34.375,14 34.375,14 L39.375,14 C39.375,14 39,17.996 39,20 C39,22 47.595,24.072 49,28 L51,36 z"/><path fill="#B5B5B5" d="M19,36 L30.359,14 L25,14 L8,36 z"/><path id="highway-motorway-link-stroke3" fill="currentColor" d="M32.5,33 L33.75,29 L30.75,29 L29.5,33 z M22.5,21 L24.5,17.5 L27.5,17.5 L25.5,21 z"/></g></svg>