<svg xmlns="http://www.w3.org/2000/svg" xmlns:xlink="http://www.w3.org/1999/xlink" width="50" height="50" x="0" y="0" version="1.1" viewBox="5 0 50 50"><path fill="#444" d="M15,14 L10,36 L17.5,36 L20.5,14 L15,14 z M22,14 L19.5,36 L29,36 L29.5,14 L22,14 z M30.5,14 L31,36 L40,36 L37.5,14 L30.5,14 z M39,14 L42,36 L50,36 L44.5,14 L39,14 z"/><path id="highway-trunk-stroke2" fill="currentColor" d="M41.75,20 L41,16 L43.875,16 L44.625,20 z M37,33 L36.5,29 L33.5,29 L34,33 z M13.5,33 L14,29 L17,29 L16.5,33 z M23.25,20 L23.562,16 L26.438,16 L26.125,20 z"/></svg>