<svg xmlns="http://www.w3.org/2000/svg" xmlns:xlink="http://www.w3.org/1999/xlink" width="50" height="50" x="0" y="0" version="1.1" viewBox="5 0 50 50"><defs><linearGradient id="Gradient_1" x1="-720.5" x2="-722" y1="157.987" y2="152.362" gradientTransform="matrix(1, 0, 0, 1, 760, -132.362)" gradientUnits="userSpaceOnUse"><stop offset="0" stop-color="#444"/><stop offset="1" stop-color="#B5B5B5"/></linearGradient></defs><g><g><path fill="#B5B5B5" d="M33,14 L24,36 L35,36 L36.156,28.375 C34.72,27.032 33,25.193 33,24 L33,22 L36.906,23.5 L38.344,14 L33,14 z"/><path fill="#B5B5B5" d="M22,36 L31.359,14 L26,14 L11,36 z"/><path id="highway-trunk-link-stroke3" fill="currentColor" d="M31.5,33 L32.75,29 L29.75,29 L28.5,33 z M23.5,21 L25.5,17.5 L28.5,17.5 L26.5,21 z"/></g><path fill="url(#Gradient_1)" d="M41,36 L41,32 C41,27.548 33,26.172 33,22 C33,19 33.375,14 33.375,14 L38.375,14 C38.375,14 38,17.996 38,20 C38,22 46.595,24.072 48,28 L50,36 z"/></g></svg>