<svg xmlns="http://www.w3.org/2000/svg" xmlns:xlink="http://www.w3.org/1999/xlink" width="50" height="50" x="0" y="0" version="1.1" viewBox="5 0 50 50"><defs><linearGradient id="Gradient_1" x1="-840.5" x2="-842" y1="157.987" y2="152.362" gradientTransform="matrix(1, 0, 0, 1, 874, -132.362)" gradientUnits="userSpaceOnUse"><stop offset="0" stop-color="#444"/><stop offset="1" stop-color="#B5B5B5"/></linearGradient></defs><g><path fill="#B5B5B5" d="M27,14 L18,36 L29,36 L30.156,28.375 C28.72,27.032 27,25.193 27,24 L27,22 L30.906,23.5 L32.344,14 L27,14 z"/><path id="highway-secondary-link-stroke3" fill="currentColor" d="M25.5,33 L26.75,29 L23.75,29 L22.5,33 z"/><path fill="url(#Gradient_1)" d="M35,36 L35,32 C35,27.548 27,26.172 27,22 C27,19 27.375,14 27.375,14 L32.375,14 C32.375,14 32,17.996 32,20 C32,22 40.595,24.072 42,28 L44,36 z"/></g></svg>